<svg width="114" height="128" viewBox="0 0 114 128" fill="none" xmlns="http://www.w3.org/2000/svg">
<path fill-rule="evenodd" clip-rule="evenodd" d="M34.3967 3.47992C12.2317 12.5979 -5.44332 45.6249 3.26668 61.6499C6.20768 67.0609 15.3577 73.1259 20.5797 73.1259C22.2287 73.1259 22.5507 73.5269 21.9867 74.8759C12.4437 97.6929 16.9777 126.135 30.1557 126.122C36.5227 126.116 41.1077 122.238 52.5687 107.164C55.1337 103.792 55.1337 103.792 58.3807 106.192C68.8697 113.947 98.1857 105.085 107.79 91.2559C116.049 79.3629 104.086 54.5729 88.1587 50.5749C84.3327 49.6149 84.7507 49.0709 92.7367 44.6259C117.829 30.6569 118.596 14.2319 94.1057 15.2799C80.2657 15.8709 66.1657 25.8889 59.8957 39.5829C55.9907 48.1139 57.5457 48.3169 63.6437 40.0719C74.9167 24.8309 84.6127 18.8389 98.2247 18.6999C119.342 18.4839 110.931 30.3529 78.6997 46.2529C63.5407 53.7309 60.4527 56.0989 64.7677 56.9359C65.6457 57.1059 69.2437 56.0939 72.7627 54.6859C85.4037 49.6289 97.4207 55.6409 104.621 70.6259C111.417 84.7719 104.444 94.2059 82.1497 101.028C70.1177 104.71 56.4067 102.797 58.0257 97.6619C61.5947 86.3429 61.9207 79.0189 59.0397 74.8819C57.3017 72.3869 56.5317 73.7379 57.7917 77.0749C58.9427 80.1249 56.1907 93.1259 54.3937 93.1259C52.9087 93.1259 53.3997 87.7199 55.1067 85.2839C56.9517 82.6489 56.2717 81.2439 54.0457 83.0919C51.8677 84.8999 50.4517 90.9429 51.1637 95.3959C52.2897 102.438 35.9627 122.658 29.7287 121.94C18.6007 120.658 19.6887 75.8599 30.9387 72.1479C36.8877 70.1839 43.0827 62.2759 41.3347 58.8759C39.2827 54.8869 31.8307 58.6539 26.8327 66.2069C20.5717 75.6669 5.50468 65.8289 5.50468 52.2809C5.50468 28.6539 37.7427 -3.81108 51.9567 5.50292C57.1107 8.87892 58.0447 26.1349 53.9947 43.1259C53.5777 44.8749 54.0377 44.4709 55.5237 41.7829C61.8637 30.3139 61.8267 10.2949 55.4547 3.92292C51.7327 0.199924 42.8267 0.0129235 34.3967 3.47992ZM40.5047 60.9389C40.5047 62.8859 36.4227 67.1519 32.7547 69.0389C29.2247 70.8549 29.9897 68.6399 34.6317 63.6039C39.1017 58.7549 40.5047 58.1179 40.5047 60.9389Z" fill="black" stroke="black" stroke-width="2"/>
<path d="M51.8047 68.7646C52.5481 68.9756 53.4228 69.0267 54.543 68.9512L55.0391 68.9111C57.0979 68.7211 59.443 67.7865 61.333 66.582C62.2778 65.9799 63.1085 65.3106 63.7324 64.6338C64.2785 64.0414 64.6656 63.444 64.833 62.8818L64.8906 62.6426C65.0799 61.5851 64.7406 60.2488 63.8809 58.6719C63.1287 57.2923 61.9793 55.7298 60.4395 54.0117L59.7559 53.2666C59.0658 52.5369 58.5276 51.9881 58.0361 51.6152C57.545 51.2427 57.101 51.0461 56.6016 51.0186C56.1017 50.9911 55.543 51.1335 54.8213 51.4414C54.2799 51.6724 53.6473 51.9959 52.8799 52.4111L52.0664 52.8574C50.5274 53.7142 49.6799 54.205 49.1143 54.6797C48.6909 55.035 48.4248 55.381 48.1445 55.8662L47.8535 56.4033C47.4411 57.1806 47.2121 57.6629 47.1016 58.2393C47.0186 58.6717 47.0016 59.1579 47.0254 59.8623L47.0615 60.6465C47.2101 63.3801 47.9718 65.4993 49.3184 67.0576L49.5957 67.3613C50.2761 68.0734 50.9556 68.5237 51.8047 68.7646ZM55.7285 54.0869C55.5992 54.0761 55.489 54.0505 55.4131 54.0059C55.3749 53.9834 55.3443 53.9555 55.3252 53.9219C55.306 53.8881 55.2983 53.8492 55.3037 53.8057C55.3117 53.7409 55.3482 53.6656 55.417 53.5791L55.4971 53.4893V53.4883L56.0352 52.9883V52.9893C56.2914 52.7331 56.6736 52.7342 56.9893 52.8604C57.1474 52.9236 57.2902 53.0186 57.3936 53.1299C57.4968 53.2411 57.5615 53.3697 57.5615 53.5C57.5615 53.5705 57.5096 53.6371 57.4287 53.6973C57.3469 53.7581 57.2314 53.8152 57.0977 53.8662C56.83 53.9683 56.4839 54.0468 56.168 54.0781C56.0099 54.0938 55.8585 54.0978 55.7285 54.0869ZM50.3262 63.7852C50.3096 63.7859 50.293 63.7801 50.2773 63.7695C50.2615 63.7589 50.2448 63.7432 50.2275 63.7236C50.1933 63.6847 50.1542 63.6269 50.1084 63.5537L49.9512 63.2881C49.6485 62.7305 49.4257 61.8793 49.3105 60.9941C49.2098 60.2196 49.1913 59.4172 49.2734 58.7598L49.3145 58.4873C49.4737 57.6591 49.9992 56.7364 50.4844 56.1836C50.6058 56.0453 50.7252 55.93 50.8359 55.8447C50.9463 55.7597 51.0494 55.7038 51.1387 55.6865C51.1834 55.6779 51.2251 55.6781 51.2627 55.6904C51.3005 55.7029 51.333 55.7274 51.3594 55.7627C51.4116 55.8326 51.4394 55.9469 51.4395 56.1104C51.4395 56.1676 51.4261 56.2667 51.4014 56.3945C51.3765 56.5227 51.3405 56.6819 51.2969 56.8604C51.2096 57.2175 51.0898 57.6537 50.9629 58.082C50.7097 58.9368 50.4883 60.6487 50.4883 61.8848V61.8965L50.4619 63.1338C50.4559 63.2812 50.4485 63.4017 50.4385 63.4961C50.4285 63.59 50.4159 63.6601 50.3994 63.707C50.3912 63.7304 50.3817 63.7493 50.3701 63.7627C50.3582 63.7764 50.3433 63.7843 50.3262 63.7852ZM55.459 64.5742C55.3892 64.5687 55.3359 64.5511 55.3047 64.5176C55.2725 64.4829 55.2675 64.4345 55.2832 64.3779C55.2989 64.3218 55.3361 64.2539 55.3936 64.1748C55.4513 64.0954 55.5299 64.0032 55.6299 63.8984C55.7301 63.7935 55.8519 63.6755 55.9951 63.5439L56.4893 63.1094C57.0752 62.6026 57.4625 62.129 57.6436 61.7197C57.8018 61.362 57.8023 61.0551 57.6445 60.8184L57.5664 60.7217C57.5633 60.7188 57.5578 60.715 57.5479 60.7129C57.5377 60.7108 57.5244 60.7102 57.5078 60.7109C57.4742 60.7124 57.429 60.7197 57.374 60.7334C57.2641 60.7609 57.1164 60.8126 56.9424 60.8838C56.6812 60.9906 56.3616 61.1425 56.0244 61.3252L55.6826 61.5176L55.3252 61.7002C54.9694 61.8742 54.6223 62.0207 54.3242 62.125C54.1257 62.1945 53.9484 62.246 53.8047 62.2734C53.7328 62.2872 53.6684 62.2944 53.6143 62.2959C53.5873 62.2966 53.5625 62.2956 53.54 62.293L53.4805 62.2803C53.3447 62.2309 53.2388 62.1213 53.1592 61.9678C53.0796 61.8143 53.0255 61.6151 52.9951 61.3838C52.9344 60.9212 52.967 60.3255 53.0742 59.6963C53.2752 58.5168 53.7414 57.2137 54.3633 56.4385L54.4893 56.29C54.8903 55.857 55.5942 55.6663 56.3145 55.7061C56.99 55.7434 57.6841 55.9839 58.1631 56.4219L58.2559 56.5117C58.59 56.83 58.7902 57.102 58.9062 57.498C59.022 57.8931 59.0537 58.4109 59.0537 59.2197C59.0537 60.7121 58.8069 61.9046 58.3174 62.7842C57.8275 63.6642 57.0948 64.2307 56.123 64.4697H56.1221C55.8212 64.5488 55.5991 64.5853 55.459 64.5742Z" fill="black" stroke="black" stroke-width="0.0317234"/>
</svg>
